<?xml version="1.0" encoding="UTF-8" standalone="no"?>
<!-- Created with Inkscape (http://www.inkscape.org/) -->

<svg
   xmlns:dc="http://purl.org/dc/elements/1.1/"
   xmlns:cc="http://creativecommons.org/ns#"
   xmlns:rdf="http://www.w3.org/1999/02/22-rdf-syntax-ns#"
   xmlns:svg="http://www.w3.org/2000/svg"
   xmlns="http://www.w3.org/2000/svg"
   xmlns:sodipodi="http://sodipodi.sourceforge.net/DTD/sodipodi-0.dtd"
   xmlns:inkscape="http://www.inkscape.org/namespaces/inkscape"
   width="8mm"
   height="8mm"
   viewBox="0 0 8 8"
   version="1.1"
   id="svg1999"
   inkscape:version="0.92.4 (5da689c313, 2019-01-14)"
   sodipodi:docname="arrow.svg">
  <defs
     id="defs1993" />
  <sodipodi:namedview
     id="base"
     pagecolor="#ffffff"
     bordercolor="#666666"
     borderopacity="1.0"
     inkscape:pageopacity="0.0"
     inkscape:pageshadow="2"
     inkscape:zoom="5.6"
     inkscape:cx="-3.267898"
     inkscape:cy="11.477322"
     inkscape:document-units="mm"
     inkscape:current-layer="layer1"
     showgrid="false"
     inkscape:window-width="1910"
     inkscape:window-height="725"
     inkscape:window-x="0"
     inkscape:window-y="1171"
     inkscape:window-maximized="0" />
  <metadata
     id="metadata1996">
    <rdf:RDF>
      <cc:Work
         rdf:about="">
        <dc:format>image/svg+xml</dc:format>
        <dc:type
           rdf:resource="http://purl.org/dc/dcmitype/StillImage" />
        <dc:title></dc:title>
      </cc:Work>
    </rdf:RDF>
  </metadata>
  <g
     inkscape:label="Layer 1"
     inkscape:groupmode="layer"
     id="layer1"
     transform="translate(0,-289)">
    <path
       inkscape:connector-curvature="0"
       d="m 3.7115131,293.61141 0.0756,-0.18349 0.14031,0.14031 2.35556,2.35556 c 0.0517,0.0517 0.13542,0.0517 0.18709,0 l 0.48572,-0.4857 c 0.0516,-0.0517 0.0516,-0.13544 0,-0.18708 l -2.35558,-2.35559 -0.14034,-0.14033 0.18349,-0.0755 1.62052,-0.66728 c 0.11335,-0.0467 0.10776,-0.20908 -0.009,-0.24784 l -4.97364,-1.65788 c -0.0407,-0.0136 -0.0855,-0.003 -0.11581,0.0273 -0.0303,0.0303 -0.0409,0.0751 -0.0273,0.11581 l 1.65787,4.97364 c 0.0388,0.11628 0.20116,0.12187 0.24784,0.008 z"
       id="path1064"
       style="fill:#ff0000;fill-opacity:1;stroke:#0000ff;stroke-width:0.26458332;stroke-opacity:1" />
  </g>
</svg>
