<?xml version="1.0" encoding="UTF-8" standalone="no"?>
<!-- Uploaded to: SVG Repo, www.svgrepo.com, Generator: SVG Repo Mixer Tools -->

<svg
   xmlns:dc="http://purl.org/dc/elements/1.1/"
   xmlns:cc="http://creativecommons.org/ns#"
   xmlns:rdf="http://www.w3.org/1999/02/22-rdf-syntax-ns#"
   xmlns:svg="http://www.w3.org/2000/svg"
   xmlns="http://www.w3.org/2000/svg"
   xmlns:sodipodi="http://sodipodi.sourceforge.net/DTD/sodipodi-0.dtd"
   xmlns:inkscape="http://www.inkscape.org/namespaces/inkscape"
   version="1.1"
   id="Layer_1"
   width="8"
   height="8"
   viewBox="0 0 1.2 1.2"
   enable-background="new 0 0 120 120"
   xml:space="preserve"
   sodipodi:docname="gear-svgrepo-com.svg"
   inkscape:version="0.92.4 (5da689c313, 2019-01-14)"><metadata
   id="metadata9"><rdf:RDF><cc:Work
       rdf:about=""><dc:format>image/svg+xml</dc:format><dc:type
         rdf:resource="http://purl.org/dc/dcmitype/StillImage" /><dc:title></dc:title></cc:Work></rdf:RDF></metadata><defs
   id="defs7" /><sodipodi:namedview
   pagecolor="#ffffff"
   bordercolor="#666666"
   borderopacity="1"
   objecttolerance="10"
   gridtolerance="10"
   guidetolerance="10"
   inkscape:pageopacity="0"
   inkscape:pageshadow="2"
   inkscape:window-width="884"
   inkscape:window-height="1038"
   id="namedview5"
   showgrid="false"
   inkscape:zoom="26.700352"
   inkscape:cx="5.1368215"
   inkscape:cy="11.734944"
   inkscape:window-x="393"
   inkscape:window-y="858"
   inkscape:window-maximized="0"
   inkscape:current-layer="Layer_1" />
<path
   d="m 1.0386329,0.68596712 c 0.017917,0 0.03461,-0.0145296 0.037049,-0.0322926 0,0 0.00342,-0.024967 0.00342,-0.0546583 0,-0.0296914 -0.00342,-0.0546583 -0.00342,-0.0546583 -0.00246,-0.017771 -0.019132,-0.0323007 -0.037049,-0.0323007 H 0.9459852 c -0.0179412,0 -0.0365631,-0.0114341 -0.0413766,-0.0254046 -0.004813,-0.0139705 -0.0114584,-0.0587911 0.001224,-0.071465 l 0.0654765,-0.0654847 c 0.0126739,-0.012682 0.0136626,-0.0343266 0.00218,-0.0481107 L 0.8964488,0.22452762 C 0.8826647,0.21303682 0.8610283,0.21400922 0.84833,0.22669962 L 0.7828535,0.29218422 C 0.7701796,0.30487432 0.7490375,0.30997962 0.7359097,0.30354542 0.722782,0.29711142 0.6859676,0.26997252 0.6859676,0.25203932 v -0.0926477 c 0,-0.0179331 -0.0145377,-0.0346102 -0.0322926,-0.0370494 0,0 -0.024967,-0.003436 -0.0546583,-0.003436 -0.0296914,0 -0.0546583,0.003436 -0.0546583,0.003436 -0.017771,0.002439 -0.0323169,0.0191162 -0.0323169,0.0370494 v 0.0926477 c 0,0.0179331 -0.011426,0.036555 -0.0254046,0.0413766 -0.0139786,0.004822 -0.0587911,0.0114584 -0.0714732,-0.001224 L 0.3496791,0.22670722 c -0.012682,-0.012682 -0.0343266,-0.0136626 -0.0481026,-0.00218 L 0.22452,0.30158372 c -0.0114908,0.0137841 -0.0105184,0.0354205 0.002172,0.0481107 l 0.0654766,0.0654847 c 0.012682,0.012682 0.0178035,0.0338079 0.0113611,0.0469357 -0.006442,0.0131277 -0.0335729,0.0499421 -0.0515061,0.0499421 H 0.1593921 c -0.0179331,0 -0.0346102,0.0145377 -0.0370575,0.0323007 0,0 -0.003436,0.024967 -0.003436,0.0546502 0,0.0296994 0.003436,0.0546502 0.003436,0.0546502 0.002439,0.0177792 0.0191162,0.0323088 0.0370575,0.0323088 h 0.0926477 c 0.0179331,0 0.036555,0.0114179 0.0413685,0.0254046 0.004822,0.0139786 0.0114584,0.058783 -0.001232,0.071457 l -0.0654765,0.0654847 c -0.012682,0.012682 -0.0136626,0.0343266 -0.002172,0.0481188 l 0.0770484,0.0770565 c 0.0137841,0.0114827 0.0354124,0.0105265 0.0481026,-0.00218 l 0.0654846,-0.0654765 c 0.012682,-0.0126739 0.033808,-0.0177873 0.0469438,-0.011353 0.0131358,0.006434 0.049934,0.0335729 0.049934,0.051498 v 0.0926477 c 0,0.017925 0.0145377,0.034602 0.0323169,0.037033 0,0 0.0249589,0.00344 0.0546583,0.00344 0.0296994,0 0.0546583,-0.00344 0.0546583,-0.00344 0.0177711,-0.00244 0.0322926,-0.019108 0.0322926,-0.037033 v -0.0926477 c 0,-0.0179331 0.0114341,-0.0365631 0.0254127,-0.0413766 0.0139867,-0.004822 0.0587992,-0.0114503 0.0714732,0.001224 l 0.0654765,0.0654846 c 0.012682,0.0126658 0.0343266,0.0136626 0.0481188,0.002172 l 0.0770403,-0.0770322 c 0.0114827,-0.0137841 0.0105265,-0.0354124 -0.00218,-0.0481188 L 0.9058323,0.78285342 c -0.012682,-0.0126739 -0.0178035,-0.0338079 -0.011353,-0.0469438 0.006434,-0.0131277 0.0335729,-0.0499421 0.051498,-0.0499421 z m -0.4396248,0.0887823 c -0.097056,0 -0.17573322,-0.078661 -0.17573322,-0.17574133 0,-0.0970479 0.0786772,-0.17573322 0.17573322,-0.17573322 0.097056,0 0.17574133,0.0786772 0.17574133,0.17573322 0,0.097056 -0.0786853,0.17574133 -0.17574133,0.17574133 z"
   id="path2"
   inkscape:connector-curvature="0"
   style="fill:#0000ff;stroke-width:1;fill-opacity:1" />
</svg>